<?xml version="1.0" encoding="UTF-8"?>
<!DOCTYPE svg PUBLIC "-//W3C//DTD SVG 1.1//EN" "http://www.w3.org/Graphics/SVG/1.1/DTD/svg11.dtd">
<!-- Creator: CorelDRAW Standard 2024 (Evaluation Version) -->
<svg xmlns="http://www.w3.org/2000/svg" xml:space="preserve" width="115mm" height="24mm" version="1.1" style="shape-rendering:geometricPrecision; text-rendering:geometricPrecision; image-rendering:optimizeQuality; fill-rule:evenodd; clip-rule:evenodd"
viewBox="0 0 11500 2400"
 xmlns:xlink="http://www.w3.org/1999/xlink"
 xmlns:xodm="http://www.corel.com/coreldraw/odm/2003">
 <defs>
  <style type="text/css">
   <![CDATA[
    .fil0 {fill:#233F55}
    .fil1 {fill:#244057}
    .fil2 {fill:#1A74C3;fill-rule:nonzero}
   ]]>
  </style>
 </defs>
 <g id="Layer_x0020_1">
  <metadata id="CorelCorpID_0Corel-Layer"/>
  <path class="fil0" d="M4024.34 798.81l1.62 793.4 -111.97 21.17 -0.47 101.72 488.13 0.86 2.81 -103.18 -146.24 -16.83c-11.32,-29.17 -7.29,-522.85 -3.72,-589.15 37.07,29.21 110.23,134.05 145.84,177.4l426.88 541.86 245.26 0.31 4.91 -923.52 109.23 -23.98c5.51,-32.15 8.68,-72.65 -2.75,-103.07l-463.52 -0.07 -1.57 105.69 128.56 15.66 0.33 545.77c-1.44,-1.14 -3.84,-4.69 -4.59,-3.56 -0.74,1.11 -3.65,-2.7 -4.64,-3.57 -5.71,-5.01 -5.86,-4.71 -11.76,-10.92l-519.59 -651.52 -423.07 -0.96c0.47,19.96 0.79,38.08 0.38,56.57 -0.46,21.36 -6.25,42.88 10.34,51.54 5.6,2.93 112.74,15.76 129.6,18.38z"/>
  <path class="fil0" d="M3104.79 846.13c-0.01,-23.39 -0.31,-25.64 27.59,-28.59 42.86,-4.53 151.93,1.25 190.2,9.42 75.54,16.13 108.09,48.77 122.55,116.83 49.93,234.94 -174.29,233.87 -339.42,231.52l-0.92 -329.18zm723.58 767.93c-140.91,-20.21 -114.93,-11.73 -192.49,-139.86 -40.65,-67.15 -90.67,-127.34 -125.35,-195.38 4.64,-4.03 4.1,-3.66 12.91,-8.56 86.15,-47.93 183.87,-77.7 209.05,-231.8 74.96,-458.8 -656.98,-365.45 -1063.45,-367.54l-0.23 109.86c41.48,4.2 106.74,7.32 137,23.06 15.98,29.48 6.38,689.3 6.08,784.37l-128.65 24.41 4.2 102.99 576.58 -1.8c23.48,-149.11 -22,-96.43 -159.34,-122.14l-0.21 -271.16 134.63 0.65 231.19 397.77 358.84 -1.34 -0.76 -103.53z"/>
  <path class="fil0" d="M5821.86 872.73l157.69 405.93 -319.53 0.39 161.84 -406.32zm-218.72 549.75l433.35 -0.59 61.67 170.93 -92.71 19.79 2.44 102.72 496.17 -0.19 -0.53 -100.77 -100.79 -17.98c-61.42,-115.67 -349.71,-892.18 -382.99,-930.34l-356.18 0.75c-19.44,23.93 -82.05,191.46 -96.72,230.23l-281.82 698.51 -92.23 16.66 2.79 103.56 428.73 -0.45 0.35 -103.7 -90.97 -16.11 69.44 -173.02z"/>
  <path class="fil1" d="M2218.94 795.44c0.05,161.13 -0.34,322.25 -0.31,483.38 0.03,172.67 4.2,289.11 -230.33,293.88 -234.53,4.77 -238.08,-125.58 -237.99,-293.88 0.08,-150.68 -10.51,-328.72 1.3,-475.96 30.05,-15.16 84.45,-19.79 125.19,-23.8l-4.21 -110.67 -560.18 0.2 1.1 109.91 139.01 22.09c9.9,168.58 -12.86,535.72 9.69,659.13 34.47,188.67 223.36,272.71 480.25,274.76 256.81,2.05 446.94,-87.14 478.09,-276.67 24.77,-150.78 -10.79,-490.45 8.78,-660.48l135.62 -18.71 -0.19 -106.2 -493.9 -0.46 0.18 106.55 147.9 16.93z"/>
  <path class="fil0" d="M6762.21 1414.45l-165.16 -0.99 4.82 217.71c201.71,128.19 794.91,197.17 894.92,-111.65 32.52,-100.43 12.11,-221.77 -56.08,-280.93 -177.4,-153.93 -494.34,-142.06 -556.78,-250.63 -45.7,-79.45 6.04,-178.21 181.51,-182.35 50.84,-1.19 142.36,10.16 180.68,29.3 26.17,13.07 22.45,34.42 28.8,63.01 5.69,25.64 10.6,51.18 20.87,75.34l158.2 -0.25 2.14 -229.22c-206,-133.08 -770.39,-157.41 -856.56,147.94 -33.92,120.2 8.73,209.04 76.36,278.39 134.7,138.15 503.23,119.57 537.77,253.66 31.72,123.12 -84.61,167.83 -224.28,158.67 -57.4,-3.77 -120.57,-17.93 -169.2,-35.69 -36.6,-13.37 -28.43,-19.78 -37.41,-55.73 -6.4,-25.65 -13.83,-50.99 -20.6,-76.58z"/>
  <path class="fil1" d="M442.27 1414.2l0 295.61c134.11,28.48 267.57,45.11 409.61,8.57 117.29,-30.17 204.9,-89.03 236.91,-184.35 39.63,-117.96 1.72,-558.99 18.67,-731.17 30.47,-15.56 84.63,-20.04 125.64,-23.96l-0.35 -112.94 -596.45 0.19 3.46 113.39 167.33 22.14c15.85,34.78 6.03,501.95 5.34,582.31 -0.79,91.98 -3.26,183.46 -113.1,196.84 -137.73,16.78 -148.25,-69.92 -155.2,-165.71l-101.86 -0.92z"/>
  <path class="fil2" d="M7735.9 1520.93c80.14,0 120.22,40.07 120.22,120.22 0,80.14 -40.08,120.21 -120.22,120.21 -80.14,0 -120.21,-40.07 -120.21,-120.21 0,-80.15 40.07,-120.22 120.21,-120.22z"/>
  <path id="_1" class="fil2" d="M8655.22 1748.78l-248.82 0 0 -504.85c0,-51.96 -14.44,-78.05 -43.33,-78.05 -29.59,0 -54.98,20.5 -76.65,61.27 -21.67,41.01 -32.38,89.23 -32.38,144.91l0 376.72 -248.82 0 0 -689.14c85.5,0 168.44,-5.59 248.82,-17l0 128.83c61.97,-85.73 137.92,-128.6 227.38,-128.6 115.79,0 173.8,58.71 173.8,176.36l0 529.55z"/>
  <path id="_2" class="fil2" d="M9287.51 1496.24l100.41 29.58c-10.48,158.89 -104.37,238.34 -281.43,238.34 -229.48,0 -344.34,-114.39 -344.34,-343.17 0,-111.13 30.52,-201.99 91.56,-273.05 61.04,-71.06 139.09,-106.47 234.37,-106.47 198.96,0 298.44,128.14 298.44,384.41l-363.2 0c0,180.79 45.89,271.18 137.45,271.18 85.5,0 128.37,-51.25 128.37,-153.53 0,-13.74 -0.47,-29.35 -1.63,-47.29zm-264.89 -147.24l148.87 0c0,-160.29 -24,-240.43 -72.22,-240.43 -43.8,0 -68.26,59.41 -73.86,178.22l-2.79 62.21z"/>
  <polygon id="_3" class="fil2" points="10362.45,1061.04 10136.7,1748.78 9978.27,1748.78 9884.85,1400.02 9791.89,1748.78 9634.17,1748.78 9408.42,1061.04 9668.42,1061.04 9789.8,1465.02 9888.11,1061.04 10049.33,1061.04 10154.4,1465.02 10281.37,1061.04 "/>
  <path id="_4" class="fil2" d="M10953.04 1237.87l-120.92 20.97c0,-102.98 -47.99,-154.46 -143.97,-154.46 -58.95,0 -88.3,24.23 -88.3,72.45 0,35.41 50.55,73.62 151.9,114.62 154.92,63.37 232.51,143.75 232.51,241.13 0,155.39 -98.55,232.97 -295.42,232.97 -208.51,0 -312.65,-77.58 -312.65,-232.97l128.37 -26.09c-1.63,15.14 -2.56,29.35 -2.56,42.63 0,40.07 16.77,75.02 50.09,104.84 33.55,29.59 72.92,44.5 118.35,44.5 60.11,0 90.16,-25.4 90.16,-76.42 0,-34.24 -48.46,-71.99 -145.61,-113.46 -146.07,-62.9 -219.23,-143.27 -219.23,-241.82 0,-65 27.96,-118.35 84.11,-160.05 55.91,-41.71 127.9,-62.44 215.73,-62.44 156.09,0 241.83,64.53 257.44,193.6z"/>
 </g>
</svg>
